<?xml version="1.0" standalone="no"?>
<!DOCTYPE svg PUBLIC "-//W3C//DTD SVG 20010904//EN"
 "http://www.w3.org/TR/2001/REC-SVG-20010904/DTD/svg10.dtd">
<svg version="1.0" xmlns="http://www.w3.org/2000/svg"
 width="700.000000pt" height="700.000000pt" viewBox="0 0 700.000000 700.000000"
 preserveAspectRatio="xMidYMid meet">
<metadata>
Created by potrace 1.14, written by Peter Selinger 2001-2017
</metadata>
<g transform="translate(0.000000,700.000000) scale(0.100000,-0.100000)"
fill="#000000" stroke="none">
<path d="M1310 3500 l0 -3500 2625 0 2625 0 0 3500 0 3500 -2625 0 -2625 0 0
-3500z m2740 1739 c173 -21 344 -101 475 -222 124 -114 201 -237 252 -404 24
-79 26 -104 26 -238 0 -134 -2 -159 -26 -238 -94 -308 -320 -526 -629 -609
-115 -30 -307 -30 -423 1 -392 104 -657 445 -657 846 0 331 171 615 464 769
168 89 329 119 518 95z m497 -2195 c169 -35 301 -104 426 -223 122 -117 193
-233 244 -398 26 -85 27 -98 31 -380 l4 -293 -1312 0 -1311 0 3 303 c5 345 7
359 87 522 121 245 341 414 611 470 49 10 197 13 603 14 454 1 550 -1 614 -15z"/>
<path d="M440 5905 l0 -655 325 0 325 0 0 655 0 655 -325 0 -325 0 0 -655z"/>
<path d="M440 4155 l0 -655 325 0 325 0 0 655 0 655 -325 0 -325 0 0 -655z"/>
<path d="M440 2405 l0 -655 325 0 325 0 0 655 0 655 -325 0 -325 0 0 -655z"/>
<path d="M440 655 l0 -655 325 0 325 0 0 655 0 655 -325 0 -325 0 0 -655z"/>
</g>
</svg>
