<?xml version="1.0" standalone="no"?>
<!DOCTYPE svg PUBLIC "-//W3C//DTD SVG 20010904//EN"
 "http://www.w3.org/TR/2001/REC-SVG-20010904/DTD/svg10.dtd">
<svg version="1.0" xmlns="http://www.w3.org/2000/svg"
 width="560.000000pt" height="560.000000pt" viewBox="0 0 560.000000 560.000000"
 preserveAspectRatio="xMidYMid meet">
<metadata>
Created by potrace 1.14, written by Peter Selinger 2001-2017
</metadata>
<g transform="translate(0.000000,560.000000) scale(0.100000,-0.100000)"
fill="#000000" stroke="none">
<path d="M5135 5545 c28 -15 59 -34 70 -43 18 -16 19 -16 6 0 -17 22 -68 54
-101 62 -14 4 -2 -5 25 -19z"/>
<path d="M5230 5476 c0 -2 8 -10 18 -17 15 -13 16 -12 3 4 -13 16 -21 21 -21
13z"/>
<path d="M3845 5233 c-31 -4 -790 -133 -2230 -378 -440 -75 -829 -143 -864
-151 -124 -28 -209 -94 -257 -199 -35 -75 -39 -150 -15 -290 11 -66 17 -123
12 -128 -4 -4 -66 -18 -139 -30 -136 -24 -172 -40 -172 -80 0 -19 1 -19 18 -4
20 19 48 22 54 7 2 -5 178 19 423 60 230 38 423 66 427 64 4 -3 8 -22 8 -42
l0 -37 -415 -69 c-229 -38 -418 -73 -421 -78 -3 -4 -22 -8 -42 -8 -34 0 -35
-1 -20 -17 16 -15 30 -14 213 16 108 18 199 31 201 28 3 -3 -18 -8 -46 -12
-56 -8 -72 -25 -47 -53 17 -20 62 -271 50 -283 -5 -5 -63 -17 -130 -28 -154
-25 -173 -35 -173 -89 0 -13 5 -11 19 8 18 22 21 23 45 11 23 -13 70 -7 431
53 223 37 412 65 420 62 9 -3 15 -19 15 -40 0 -29 -4 -37 -22 -41 -13 -3 -187
-32 -388 -65 -201 -33 -388 -66 -416 -75 -29 -8 -59 -12 -68 -9 -20 8 -21 -9
-2 -25 11 -9 49 -6 164 14 144 24 204 31 152 16 -32 -9 -40 -47 -11 -56 15 -5
22 -21 31 -78 7 -40 15 -89 20 -110 4 -20 5 -39 1 -42 -4 -2 -62 -13 -130 -25
-135 -23 -156 -32 -170 -72 -10 -29 4 -42 15 -14 7 19 42 27 52 11 5 -10 93 2
421 56 228 39 421 67 428 64 10 -3 13 -17 11 -42 l-3 -37 -404 -68 c-222 -37
-417 -72 -433 -79 -15 -6 -37 -9 -48 -6 -23 6 -26 -5 -5 -23 11 -9 64 -3 255
30 133 22 247 39 253 37 6 -2 -24 -9 -68 -16 -158 -25 -175 -35 -137 -79 12
-14 24 -60 36 -137 10 -64 17 -118 15 -120 -3 -2 -57 -13 -121 -24 -132 -22
-155 -31 -169 -68 -13 -34 -3 -43 17 -15 17 25 42 29 50 9 4 -11 91 1 420 56
228 38 421 66 429 63 9 -3 15 -19 15 -40 0 -29 -4 -37 -22 -41 -13 -3 -200
-34 -416 -70 -216 -36 -402 -70 -414 -76 -11 -6 -29 -9 -39 -6 -22 6 -25 -6
-6 -21 9 -7 73 -1 221 24 115 19 214 33 220 31 6 -2 -26 -10 -72 -17 -89 -14
-107 -27 -78 -59 16 -17 63 -248 53 -258 -2 -2 -55 -12 -117 -23 -118 -20
-154 -36 -165 -70 -10 -31 3 -38 21 -12 17 24 40 29 47 10 3 -10 107 4 426 57
365 60 423 68 431 55 17 -27 11 -60 -12 -70 -13 -5 -192 -36 -398 -70 -206
-34 -394 -68 -417 -76 -24 -9 -53 -13 -65 -9 l-23 7 20 -20 20 -21 179 30 c99
16 184 28 190 26 6 -2 -13 -7 -42 -12 -59 -8 -70 -21 -53 -63 17 -40 42 -195
33 -204 -4 -4 -52 -14 -107 -24 -112 -19 -151 -34 -160 -65 -9 -27 4 -39 16
-16 11 19 39 23 55 7 6 -6 161 16 424 60 381 64 416 68 427 53 14 -19 16 -42
5 -59 -4 -6 -194 -44 -422 -83 -552 -95 -497 -83 -476 -100 20 -17 25 -16 340
39 98 17 183 29 189 27 6 -2 -38 -11 -98 -21 -61 -10 -120 -20 -132 -23 -25
-6 -29 -28 -13 -65 16 -36 48 -228 39 -234 -5 -3 -55 -14 -111 -24 -103 -20
-138 -39 -138 -76 0 -19 16 -18 24 1 6 17 42 21 48 5 2 -8 709 99 826 125 17
4 25 0 32 -19 5 -13 6 -33 4 -43 -5 -18 -47 -27 -412 -87 -224 -37 -415 -71
-424 -76 -10 -6 -32 -10 -50 -10 -30 0 -31 -1 -16 -16 15 -16 29 -15 188 11
94 15 173 25 176 22 3 -3 -17 -8 -43 -12 -74 -10 -80 -16 -61 -62 9 -21 31
-117 48 -213 36 -192 46 -224 81 -257 39 -35 120 -71 191 -84 88 -16 184 -6
613 66 626 105 689 118 965 191 212 57 349 83 1000 194 644 109 681 116 745
145 58 25 113 83 151 157 54 104 52 117 -100 1013 -75 440 -179 1050 -231
1355 -52 306 -95 563 -95 571 0 25 548 851 587 886 l37 31 -20 43 c-25 58
-125 163 -198 211 -55 35 -61 37 -77 22 -16 -14 -21 -13 -68 10 -57 29 -93 34
-85 12 5 -14 -293 -472 -302 -463 -2 2 -16 69 -29 148 -29 163 -60 240 -123
304 -66 69 -198 112 -297 98z m262 -415 l61 -332 -72 -105 c-39 -58 -74 -110
-78 -115 -3 -5 -37 17 -75 49 l-68 59 63 -65 63 -66 -283 -424 -284 -424 -59
-12 c-33 -7 -220 -42 -415 -78 -1020 -188 -1385 -256 -1388 -260 -22 -22 66
-10 443 60 242 45 651 122 908 170 258 48 471 84 475 81 4 -5 -145 -236 -153
-236 0 0 -206 -38 -456 -85 -249 -46 -617 -115 -815 -152 -238 -44 -360 -71
-358 -78 3 -8 86 4 262 36 141 27 500 93 796 148 297 55 542 99 544 96 2 -2
-40 -69 -95 -149 -85 -127 -103 -148 -133 -156 -30 -8 -651 -125 -1157 -217
-109 -20 -153 -32 -153 -42 0 -9 8 -11 23 -8 12 3 171 33 352 67 182 33 464
86 628 116 164 31 301 54 303 51 3 -3 -28 -55 -68 -116 -55 -84 -80 -113 -103
-121 -28 -9 -354 -70 -882 -166 -151 -28 -213 -43 -213 -52 0 -9 9 -12 28 -8
15 3 248 46 517 96 270 50 503 93 519 97 l30 5 -19 -28 c-121 -187 -171 -255
-189 -259 -34 -8 -820 -155 -828 -155 -5 0 -8 -7 -8 -15 0 -8 6 -12 13 -10 6
3 185 36 397 75 212 39 395 74 408 77 16 4 22 1 22 -12 0 -14 6 -16 33 -11 17
4 46 10 63 13 l30 5 13 -72 c15 -80 9 -77 99 -41 l52 21 0 -45 c0 -42 -11 -59
-231 -357 -128 -172 -233 -315 -235 -317 -2 -2 -12 3 -21 11 -10 8 -30 18 -44
22 -26 6 -27 3 -70 -120 -32 -92 -50 -129 -64 -135 -11 -4 -102 -22 -202 -40
-131 -23 -183 -36 -183 -46 0 -9 8 -12 23 -8 12 3 182 34 377 70 383 71 1105
205 1688 314 199 37 365 71 369 74 3 4 4 9 1 12 -3 3 -151 -21 -329 -54 -471
-87 -988 -183 -1358 -252 -177 -33 -325 -58 -328 -56 -5 5 306 320 622 629
116 113 220 219 232 235 19 27 32 31 145 51 329 60 983 184 987 187 18 18 -62
10 -275 -30 -137 -25 -370 -68 -519 -96 -148 -27 -278 -54 -287 -59 -14 -8
-16 -6 -10 9 14 37 148 231 162 236 16 5 322 63 630 120 262 48 250 45 250 61
0 9 -3 13 -7 11 -16 -10 -844 -159 -850 -153 -6 6 150 248 172 266 6 5 151 35
321 66 290 54 336 65 322 80 -3 3 -142 -20 -308 -51 -166 -31 -303 -55 -305
-53 -2 2 29 54 68 115 48 75 80 116 97 121 14 5 106 24 205 42 168 31 206 42
193 55 -2 3 -90 -11 -193 -30 -104 -19 -190 -33 -192 -31 -6 6 189 297 201
301 6 2 37 9 69 15 35 7 57 16 57 25 0 11 -9 11 -55 0 -30 -7 -55 -10 -55 -7
0 10 274 421 278 417 3 -2 40 -206 83 -452 43 -246 123 -709 179 -1028 56
-319 123 -705 150 -858 26 -153 51 -281 54 -284 12 -12 6 80 -10 149 -9 39
-112 616 -228 1282 -200 1138 -212 1213 -198 1241 14 28 16 28 23 10 7 -17
118 -611 470 -2524 16 -90 28 -165 27 -167 -2 -1 -215 -40 -473 -84 -259 -45
-740 -129 -1070 -186 -330 -57 -838 -145 -1130 -195 -291 -49 -566 -97 -609
-105 -52 -9 -82 -11 -86 -4 -3 5 -19 91 -35 191 -33 202 -35 192 43 204 35 5
48 3 64 -12 28 -25 124 -23 170 3 47 27 98 130 98 197 0 90 -56 157 -140 165
-57 5 -98 -14 -135 -62 -21 -28 -34 -35 -78 -40 -28 -4 -61 -9 -73 -12 -20 -5
-22 2 -38 103 -24 158 -26 150 38 158 42 6 59 3 80 -10 21 -14 40 -17 90 -13
110 9 146 54 149 186 2 62 -2 84 -19 112 -29 50 -78 80 -131 80 -55 0 -79 -12
-123 -61 -31 -34 -42 -40 -91 -45 l-57 -6 -12 73 c-7 41 -13 90 -14 109 -1 33
0 35 46 43 40 8 55 6 93 -13 40 -19 50 -21 97 -10 98 20 128 61 128 170 0 103
-48 180 -123 201 -58 15 -96 3 -143 -47 -33 -35 -52 -46 -90 -53 -27 -5 -52
-7 -55 -3 -9 10 -39 204 -39 252 0 33 -4 42 -22 49 -18 6 -11 9 33 15 29 4 65
10 78 13 17 4 22 3 16 -6 -4 -7 1 -18 11 -26 17 -12 15 -13 -21 -10 -22 2 -31
1 -20 -2 11 -3 28 -12 38 -21 24 -21 109 -20 160 1 91 39 106 220 25 304 -66
68 -151 64 -220 -10 -30 -32 -46 -40 -83 -44 -25 -3 -45 -2 -45 3 0 5 -9 64
-20 132 -11 67 -19 125 -19 130 5 30 -3 42 -28 43 -22 1 -19 3 12 9 93 17 131
20 111 9 -17 -11 -16 -13 15 -26 75 -33 177 -7 209 52 7 14 17 25 22 25 11 0
10 39 -3 101 -8 37 -22 64 -48 91 -64 70 -148 69 -215 -3 -28 -30 -49 -43 -76
-46 -45 -6 -42 -12 -65 137 -8 58 -18 117 -20 133 -3 21 0 27 13 27 9 0 35 2
57 5 22 3 34 3 28 -1 -57 -27 86 -59 152 -34 14 5 39 24 56 42 25 29 29 40 29
93 -1 105 -50 174 -138 191 -41 8 -116 -28 -139 -66 -15 -27 -76 -50 -91 -36
-8 9 -51 289 -46 298 3 5 1 15 -6 23 -11 14 -4 17 75 31 28 5 29 4 11 -9 -19
-14 -19 -15 2 -21 12 -4 20 -10 18 -14 -7 -12 67 -12 112 -1 41 11 102 65 102
92 0 8 3 7 9 -2 18 -28 1 100 -18 137 -32 62 -74 94 -129 100 -59 5 -100 -13
-138 -63 -19 -26 -34 -35 -55 -35 -16 0 -29 3 -29 6 0 3 -16 101 -35 216 -37
219 -37 227 5 228 27 0 1994 350 2010 357 8 4 40 8 70 9 30 1 294 45 585 97
292 52 541 96 555 96 l25 1 62 -332z m-3310 -894 c-3 -3 -12 -4 -19 -1 -8 3
-5 6 6 6 11 1 17 -2 13 -5z m-54 -11 c-7 -2 -19 -2 -25 0 -7 3 -2 5 12 5 14 0
19 -2 13 -5z m-60 -10 c-7 -2 -19 -2 -25 0 -7 3 -2 5 12 5 14 0 19 -2 13 -5z
m240 -510 c-7 -2 -19 -2 -25 0 -7 3 -2 5 12 5 14 0 19 -2 13 -5z m-50 -10 c-7
-2 -19 -2 -25 0 -7 3 -2 5 12 5 14 0 19 -2 13 -5z m-50 -10 c-7 -2 -21 -2 -30
0 -10 3 -4 5 12 5 17 0 24 -2 18 -5z m-60 -10 c-7 -2 -21 -2 -30 0 -10 3 -4 5
12 5 17 0 24 -2 18 -5z m-60 -10 c-7 -2 -21 -2 -30 0 -10 3 -4 5 12 5 17 0 24
-2 18 -5z m270 -460 c-7 -2 -21 -2 -30 0 -10 3 -4 5 12 5 17 0 24 -2 18 -5z
m90 -520 c-7 -2 -19 -2 -25 0 -7 3 -2 5 12 5 14 0 19 -2 13 -5z m-60 -10 c-7
-2 -21 -2 -30 0 -10 3 -4 5 12 5 17 0 24 -2 18 -5z m327 -472 c-22 -13 -113
-28 -130 -22 -13 4 85 27 130 29 13 1 13 0 0 -7z m-177 -28 c-7 -2 -19 -2 -25
0 -7 3 -2 5 12 5 14 0 19 -2 13 -5z m-50 -10 c-7 -2 -21 -2 -30 0 -10 3 -4 5
12 5 17 0 24 -2 18 -5z m-60 -10 c-7 -2 -21 -2 -30 0 -10 3 -4 5 12 5 17 0 24
-2 18 -5z m370 -419 c-18 -7 -65 -16 -105 -19 l-73 -4 95 18 c116 23 124 23
83 5z m117 -498 c0 -2 -30 -9 -67 -15 -38 -7 -76 -14 -85 -17 -10 -3 -18 -1
-18 4 0 5 28 14 63 19 72 12 107 15 107 9z m-207 -33 c-7 -2 -19 -2 -25 0 -7
3 -2 5 12 5 14 0 19 -2 13 -5z m-50 -10 c-7 -2 -21 -2 -30 0 -10 3 -4 5 12 5
17 0 24 -2 18 -5z m-60 -10 c-7 -2 -21 -2 -30 0 -10 3 -4 5 12 5 17 0 24 -2
18 -5z"/>
<path d="M2705 4035 c-99 -19 -418 -77 -708 -129 -291 -52 -531 -97 -535 -100
-19 -19 28 -16 186 13 97 18 416 75 707 127 569 101 565 101 565 115 0 13 -12
11 -215 -26z"/>
<path d="M885 3920 c3 -5 11 -10 16 -10 6 0 7 5 4 10 -3 6 -11 10 -16 10 -6 0
-7 -4 -4 -10z"/>
<path d="M1028 3883 c12 -2 30 -2 40 0 9 3 -1 5 -23 4 -22 0 -30 -2 -17 -4z"/>
<path d="M2630 3749 c-173 -32 -497 -90 -720 -130 -376 -67 -432 -80 -419 -94
3 -3 167 24 365 60 197 35 526 94 729 130 204 37 372 69 374 71 21 21 -59 12
-329 -37z"/>
<path d="M1008 3373 c7 -3 16 -2 19 1 4 3 -2 6 -13 5 -11 0 -14 -3 -6 -6z"/>
<path d="M1339 2883 c-13 -16 -12 -17 4 -4 16 13 21 21 13 21 -2 0 -10 -8 -17
-17z"/>
<path d="M1203 2843 c9 -2 25 -2 35 0 9 3 1 5 -18 5 -19 0 -27 -2 -17 -5z"/>
<path d="M1148 2373 c7 -3 16 -2 19 1 4 3 -2 6 -13 5 -11 0 -14 -3 -6 -6z"/>
<path d="M2280 1895 c-124 -23 -280 -52 -347 -65 -68 -12 -123 -27 -123 -32 0
-15 41 -8 404 60 190 35 311 62 314 70 5 16 13 17 -248 -33z"/>
</g>
</svg>
