<?xml version="1.0" encoding="UTF-8"?>
<svg viewBox="0 0 657.14 437.39" xmlns="http://www.w3.org/2000/svg">
 <g stroke="#000" stroke-width="10">
  <g fill-rule="evenodd">
   <path d="m435.45 144.36c-87.917-45.943-198.74-22.212-284.25 36.076-46.053 31.393-103.72 52.997-136.34 98.038-37.943 52.383 43.372 51.406 79.504 37.203 64.207-25.238 34.773 85.123 88.124 82.278 61.216-3.2645 92.164 2.2375 135.16-49.78 36.315-43.936 110.65-23.746 137.29-84.519 9.4868-23.045 18.575-47.274 34.569-66.616" fill="#f00"/>
   <path d="m336.31 122.14c-56.74 7.1128-210.92 69.583-155.55 115.74 55.363 46.158 191.83-89.566 158.79-31-35.601 63.095-226.51 110.15-132.3 194.76 46.032 41.343 159.99-179.82 144.22-27.43-11.792 113.9 120.98 40.602 98.855-49.648-24.49-99.909 116.12-142.71 179.07-207.22 69.836-71.566-40.001-116.47-76.927-35.757-18.944 41.408-82.386 28.481-124.72 34.838" fill="#fff"/>
  </g>
  <path d="m485.89 85a85.714 80 0 1 1 -171.43 0 85.714 80 0 1 1 171.43 0z" fill="#fff"/>
 </g>
</svg>
